<svg width="26" height="26" viewBox="0 0 26 26" fill="none" xmlns="http://www.w3.org/2000/svg">
<rect width="26" height="26" rx="3" fill="#FFCFA1"/>
<path d="M10.1556 17.5078L20.0211 5.42762C20.2539 5.14254 20.5255 5 20.8359 5C21.1464 5 21.418 5.14254 21.6508 5.42762C21.8836 5.71269 22 6.05122 22 6.44321C22 6.83519 21.8836 7.17372 21.6508 7.4588L10.9704 20.5724C10.7376 20.8575 10.466 21 10.1556 21C9.84518 21 9.57356 20.8575 9.34075 20.5724L4.33525 14.4432C4.10244 14.1581 3.99088 13.8196 4.00058 13.4276C4.01028 13.0356 4.13154 12.6971 4.36435 12.412C4.59717 12.1269 4.87363 11.9844 5.19375 11.9844C5.51387 11.9844 5.79034 12.1269 6.02315 12.412L10.1556 17.5078Z" fill="#35273A"/>
</svg>
