<svg width="26" height="26" viewBox="0 0 26 26" fill="none" xmlns="http://www.w3.org/2000/svg">
<rect width="26" height="26" rx="3" fill="#FFCFA1"/>
<path d="M7.4 21C7.015 21 6.68542 20.8576 6.41125 20.5727C6.13708 20.2879 6 19.9455 6 19.5455C6 19.1455 6.13708 18.803 6.41125 18.5182C6.68542 18.2333 7.015 18.0909 7.4 18.0909H18.6C18.985 18.0909 19.3146 18.2333 19.5888 18.5182C19.8629 18.803 20 19.1455 20 19.5455C20 19.9455 19.8629 20.2879 19.5888 20.5727C19.3146 20.8576 18.985 21 18.6 21H7.4ZM8.8 15.1818H9.78L15.24 9.52727L14.2425 8.49091L8.8 14.1636V15.1818ZM7.4 15.9091V13.8545C7.4 13.7576 7.4175 13.6636 7.4525 13.5727C7.4875 13.4818 7.54 13.4 7.61 13.3273L15.24 5.41818C15.3683 5.28485 15.5171 5.18182 15.6863 5.10909C15.8554 5.03636 16.0333 5 16.22 5C16.4067 5 16.5875 5.03636 16.7625 5.10909C16.9375 5.18182 17.095 5.29091 17.235 5.43636L18.1975 6.45455C18.3375 6.58788 18.4396 6.74545 18.5038 6.92727C18.5679 7.10909 18.6 7.29697 18.6 7.49091C18.6 7.67273 18.5679 7.85152 18.5038 8.02727C18.4396 8.20303 18.3375 8.36364 18.1975 8.50909L10.585 16.4182C10.515 16.4909 10.4363 16.5455 10.3488 16.5818C10.2613 16.6182 10.1708 16.6364 10.0775 16.6364H8.1C7.90167 16.6364 7.73542 16.5667 7.60125 16.4273C7.46708 16.2879 7.4 16.1152 7.4 15.9091Z" fill="#35273A"/>
</svg>
